<svg width="100%" viewBox="0 0 680 960" role="img" xmlns="http://www.w3.org/2000/svg">
<defs>
  <radialGradient id="glowA" cx="50%" cy="50%" r="50%">
    <stop offset="0%" stop-color="#3B82F6" stop-opacity="0.22"/>
    <stop offset="100%" stop-color="#0D1F35" stop-opacity="0"/>
  </radialGradient>
  <radialGradient id="glowB" cx="50%" cy="50%" r="50%">
    <stop offset="0%" stop-color="#F59E0B" stop-opacity="0.18"/>
    <stop offset="100%" stop-color="#0D1F35" stop-opacity="0"/>
  </radialGradient>
</defs>
<rect width="680" height="960" rx="12" fill="#0D1F35"/>
<rect width="680" height="5" fill="#3B82F6"/>
<rect y="5" width="680" height="2" fill="#60A5FA" opacity="0.4"/>
<rect x="52" y="5" width="2" height="935" fill="#3B82F6" opacity="0.3"/>
<g stroke="#1E4A7A" stroke-width="0.5" fill="none" opacity="0.5">
  <line x1="530" y1="30" x2="590" y2="70"/><line x1="590" y1="70" x2="650" y2="50"/>
  <line x1="650" y1="50" x2="670" y2="110"/><line x1="590" y1="70" x2="620" y2="130"/>
  <line x1="620" y1="130" x2="670" y2="110"/><line x1="620" y1="130" x2="640" y2="190"/>
  <line x1="670" y1="110" x2="660" y2="180"/><line x1="640" y1="190" x2="660" y2="180"/>
  <line x1="640" y1="190" x2="610" y2="250"/><line x1="660" y1="180" x2="670" y2="250"/>
  <line x1="610" y1="250" x2="670" y2="250"/><line x1="610" y1="250" x2="630" y2="320"/>
  <line x1="670" y1="250" x2="660" y2="320"/><line x1="630" y1="320" x2="660" y2="320"/>
  <line x1="630" y1="320" x2="615" y2="390"/><line x1="660" y1="320" x2="668" y2="390"/>
  <line x1="615" y1="390" x2="668" y2="390"/><line x1="615" y1="390" x2="625" y2="460"/>
  <line x1="668" y1="390" x2="662" y2="460"/><line x1="625" y1="460" x2="662" y2="460"/>
  <line x1="530" y1="30" x2="560" y2="90"/><line x1="560" y1="90" x2="590" y2="70"/>
  <line x1="560" y1="90" x2="540" y2="150"/><line x1="540" y1="150" x2="610" y2="250"/>
</g>
<g fill="#3B82F6" opacity="0.55">
  <circle cx="530" cy="30" r="2"/><circle cx="590" cy="70" r="2.5"/>
  <circle cx="650" cy="50" r="2"/><circle cx="670" cy="110" r="2"/>
  <circle cx="620" cy="130" r="3"/><circle cx="640" cy="190" r="2"/>
  <circle cx="660" cy="180" r="2"/><circle cx="610" cy="250" r="2.5"/>
  <circle cx="670" cy="250" r="2"/><circle cx="630" cy="320" r="2"/>
  <circle cx="660" cy="320" r="2"/><circle cx="615" cy="390" r="2.5"/>
  <circle cx="668" cy="390" r="2"/><circle cx="625" cy="460" r="2"/>
  <circle cx="662" cy="460" r="2"/><circle cx="560" cy="90" r="2"/>
  <circle cx="540" cy="150" r="2"/>
</g>
<text x="76" y="62" font-family="sans-serif" font-size="11" fill="#60A5FA" letter-spacing="5">副業入門 / AI活用</text>
<line x1="76" y1="78" x2="380" y2="78" stroke="#1E4A7A" stroke-width="0.8"/>
<text x="76" y="178" font-family="sans-serif" font-size="70" fill="#E2EEF9" font-weight="800">節約より、</text>
<text x="76" y="276" font-family="sans-serif" font-size="88" fill="#F59E0B" font-weight="800">稼ぐ。</text>
<line x1="76" y1="306" x2="604" y2="306" stroke="#1E4A7A" stroke-width="1"/>
<text x="76" y="348" font-family="sans-serif" font-size="16" fill="#93C5FD" font-weight="500">AIを使って月3万円の収入を作る</text>
<text x="76" y="374" font-family="sans-serif" font-size="16" fill="#93C5FD" font-weight="500">最初の30日間ロードマップ</text>
<text x="76" y="410" font-family="sans-serif" font-size="12" fill="#2A5A8A">〜 税金に負けない収入を、AIと一緒に作ろう 〜</text>
<ellipse cx="340" cy="588" rx="160" ry="100" fill="url(#glowA)"/>
<ellipse cx="420" cy="540" rx="80" ry="60" fill="url(#glowB)" opacity="0.5"/>
<circle cx="340" cy="588" r="9" fill="#3B82F6" opacity="0.9"/>
<circle cx="340" cy="588" r="16" fill="#3B82F6" opacity="0.15"/>
<circle cx="340" cy="588" r="24" fill="#3B82F6" opacity="0.07"/>
<g stroke="#2563EB" stroke-width="0.8" fill="none" opacity="0.7">
  <line x1="340" y1="588" x2="290" y2="548"/><line x1="340" y1="588" x2="395" y2="545"/>
  <line x1="340" y1="588" x2="410" y2="600"/><line x1="340" y1="588" x2="370" y2="638"/>
  <line x1="340" y1="588" x2="295" y2="628"/><line x1="340" y1="588" x2="260" y2="595"/>
  <line x1="340" y1="588" x2="308" y2="518"/><line x1="340" y1="588" x2="362" y2="510"/>
</g>
<g fill="#60A5FA" opacity="0.8">
  <circle cx="290" cy="548" r="4"/><circle cx="395" cy="545" r="3.5"/>
  <circle cx="410" cy="600" r="4"/><circle cx="370" cy="638" r="3.5"/>
  <circle cx="295" cy="628" r="3.5"/><circle cx="260" cy="595" r="3"/>
  <circle cx="308" cy="518" r="3"/><circle cx="362" cy="510" r="3.5"/>
</g>
<g stroke="#1E4A7A" stroke-width="0.6" fill="none" opacity="0.6">
  <line x1="290" y1="548" x2="248" y2="520"/><line x1="290" y1="548" x2="268" y2="490"/>
  <line x1="290" y1="548" x2="240" y2="558"/><line x1="395" y1="545" x2="440" y2="520"/>
  <line x1="395" y1="545" x2="448" y2="560"/><line x1="395" y1="545" x2="430" y2="488"/>
  <line x1="410" y1="600" x2="458" y2="588"/><line x1="410" y1="600" x2="452" y2="628"/>
  <line x1="370" y1="638" x2="390" y2="678"/><line x1="370" y1="638" x2="340" y2="668"/>
  <line x1="295" y1="628" x2="258" y2="648"/><line x1="295" y1="628" x2="272" y2="668"/>
  <line x1="260" y1="595" x2="218" y2="580"/><line x1="260" y1="595" x2="222" y2="615"/>
  <line x1="308" y1="518" x2="278" y2="478"/><line x1="362" y1="510" x2="352" y2="468"/>
  <line x1="362" y1="510" x2="400" y2="472"/>
</g>
<g fill="#93C5FD" opacity="0.6">
  <circle cx="248" cy="520" r="2.5"/><circle cx="268" cy="490" r="2"/>
  <circle cx="240" cy="558" r="2"/><circle cx="440" cy="520" r="2.5"/>
  <circle cx="448" cy="560" r="2"/><circle cx="430" cy="488" r="2"/>
  <circle cx="458" cy="588" r="2.5"/><circle cx="452" cy="628" r="2"/>
  <circle cx="390" cy="678" r="2"/><circle cx="340" cy="668" r="2.5"/>
  <circle cx="258" cy="648" r="2"/><circle cx="272" cy="668" r="2"/>
  <circle cx="218" cy="580" r="2"/><circle cx="222" cy="615" r="2"/>
  <circle cx="278" cy="478" r="2"/><circle cx="352" cy="468" r="2"/>
  <circle cx="400" cy="472" r="2.5"/>
</g>
<g stroke="#1E4A7A" stroke-width="0.4" fill="none" opacity="0.35">
  <line x1="248" y1="520" x2="218" y2="500"/><line x1="440" y1="520" x2="472" y2="500"/>
  <line x1="448" y1="560" x2="485" y2="548"/><line x1="452" y1="628" x2="482" y2="650"/>
  <line x1="390" y1="678" x2="408" y2="710"/><line x1="340" y1="668" x2="330" y2="705"/>
  <line x1="258" y1="648" x2="232" y2="672"/><line x1="218" y1="580" x2="185" y2="565"/>
  <line x1="278" y1="478" x2="260" y2="448"/><line x1="400" y1="472" x2="425" y2="445"/>
  <line x1="430" y1="488" x2="462" y2="468"/>
</g>
<g fill="#1E4A7A" opacity="0.6">
  <circle cx="218" cy="500" r="1.5"/><circle cx="472" cy="500" r="1.5"/>
  <circle cx="485" cy="548" r="1.5"/><circle cx="482" cy="650" r="1.5"/>
  <circle cx="408" cy="710" r="1.5"/><circle cx="330" cy="705" r="1.5"/>
  <circle cx="232" cy="672" r="1.5"/><circle cx="185" cy="565" r="1.5"/>
  <circle cx="260" cy="448" r="1.5"/><circle cx="425" cy="445" r="1.5"/>
  <circle cx="462" cy="468" r="1.5"/>
</g>
<line x1="52" y1="752" x2="628" y2="752" stroke="#1E4A7A" stroke-width="1"/>
<text x="76" y="790" font-family="sans-serif" font-size="11" fill="#60A5FA" letter-spacing="3">本書について</text>
<text x="76" y="820" font-family="sans-serif" font-size="13" fill="#93C5FD">スキル不要・使用ツールはすべて無料（¥0）から始められる</text>
<text x="76" y="848" font-family="sans-serif" font-size="13" fill="#93C5FD">1日1時間、30日間の具体的な行動計画つき</text>
<text x="76" y="876" font-family="sans-serif" font-size="13" fill="#93C5FD">対象：AIを活用して副業を始めたい 30〜50代の方</text>
<rect y="920" width="680" height="40" fill="#091929"/>
<rect y="920" width="680" height="4" fill="#3B82F6"/>
<text x="340" y="944" text-anchor="middle" font-family="sans-serif" font-size="11" fill="#2A5A8A">© 2026 All rights reserved.</text>
</svg>
